<?xml version="1.0" encoding="utf-8"?>
<!-- Generator: Adobe Illustrator 19.2.0, SVG Export Plug-In . SVG Version: 6.00 Build 0)  -->
<!DOCTYPE svg PUBLIC "-//W3C//DTD SVG 1.1//EN" "http://www.w3.org/Graphics/SVG/1.1/DTD/svg11.dtd">
<svg version="1.1" xmlns="http://www.w3.org/2000/svg" xmlns:xlink="http://www.w3.org/1999/xlink" x="0px" y="0px" width="496px"
	 height="253px" viewBox="0 0 496 253" enable-background="new 0 0 496 253" xml:space="preserve">
<g id="Layer_2">
</g>
<g id="macbook">
	<g>
		<polyline fill="#51DACF" points="193.10158,98.39598 137.82901,98.36319 137,97.15891 137,67 138.54482,66 194,66 
			194.50729,66.84109 194.49294,97.92268 		"/>
		<polyline fill="#76F4E8" points="137,67 195,67 193.45518,66 139,66 		"/>
		<polyline fill="#47AED6" points="138,97 194,97 194.49294,97.92268 138.25217,98.27071 		"/>
		<path fill="none" stroke="#1A2F4B" stroke-miterlimit="10" d="M193.45518,98.21101h-54.91037
			c-0.58107,0-1.05211-0.47105-1.05211-1.05211V66.84109c0-0.58106,0.47104-1.05211,1.05211-1.05211h54.91037
			c0.58107,0,1.05211,0.47105,1.05211,1.05211v30.31781C194.50729,97.73997,194.03625,98.21101,193.45518,98.21101z"/>
		<circle fill="none" stroke="#76F4E8" stroke-width="0.75" stroke-miterlimit="10" cx="166" cy="82" r="2.15437"/>
		<path fill="#76F4E8" d="M165.29295,81.85854"/>
	</g>
</g>
<g id="mac">
	<path fill="#1A2F4B" d="M52,63"/>
	<path fill="#0278AE" d="M53,88.8244"/>
	<g>
		<polyline fill="#1A2F4B" points="52.58263,87.80124 110.82281,87.662 110.8782,62.53061 109.96608,61.6256 53.10831,61.88109 		
			"/>
		<polyline fill="#51DACF" points="53.04623,87.63244 53.20366,92.72919 53.97854,93.53717 109.72762,93.54581 110.54682,93.08151 
			111,90.02895 111,87.3244 110.65512,88.0797 53.50033,87.80124 		"/>
		<polyline fill="#51DACF" points="79,94 79,99.3244 73.82822,99.00942 72.4359,99.49673 72.36629,101.44598 73.34091,101.86369 
			76.61286,102.07253 90.38852,101.8729 91.37147,101.44598 91.81745,100.44396 91.02339,99.28318 89.00452,99 85,99 85.30134,93 
			79,93 		"/>
		<polyline fill="#47AED6" points="79,93 85,93 85.38449,95 79,95 78.69866,93.30523 		"/>
		<polyline fill="#76F4E8" points="72,100.33818 92,100.3244 91.06213,101.57716 90.66929,101.96999 73.20283,101.84912 		"/>
		<polyline fill="#76F4E8" points="110.77911,88.76775 52.87757,88.69705 53.08263,87.80124 110.84981,87.84868 		"/>
		<line opacity="0.5" fill="none" stroke="#FFFFFF" stroke-miterlimit="10" x1="108.5" y1="65" x2="108.5" y2="85"/>
		<line opacity="0.5" fill="none" stroke="#FFFFFF" stroke-miterlimit="10" x1="106.5" y1="65" x2="106.5" y2="85"/>
		<path fill="none" stroke="#1A2F4B" stroke-miterlimit="10" d="M109.73217,93.5669H54.26783
			c-0.71302,0-1.29104-0.57802-1.29104-1.29104V63.07978c0-0.71302,0.57802-1.29104,1.29104-1.29104h55.46434
			c0.71302,0,1.29104,0.57802,1.29104,1.29104v29.19609C111.02321,92.98888,110.44519,93.5669,109.73217,93.5669z"/>
		
			<line fill="none" stroke="#1A2F4B" stroke-width="0.75" stroke-miterlimit="10" x1="52.66862" y1="87.82816" x2="111.33138" y2="87.8244"/>
		<g id="XMLID_1_">
			<path fill="none" stroke="#1A2F4B" stroke-miterlimit="10" d="M85.3,99.0144v-5.38H78.7v5.38h-5.09c-0.79,0-1.43,0.64-1.43,1.43
				s0.64,1.43,1.43,1.43h16.78c0.79,0,1.43-0.64,1.43-1.43s-0.64-1.43-1.43-1.43H85.3z"/>
		</g>
		<circle fill="none" stroke="#76F4E8" stroke-width="0.75" stroke-miterlimit="10" cx="82" cy="90.54465" r="1.19251"/>
	</g>
</g>
<g id="ipad">
	<g>
		<polyline fill="#1A2F4B" points="232.89005,96.48848 266.68326,96.75912 267,94.91399 267,66 266.39532,65.44125 
			233.08121,65.70618 		"/>
		<polyline fill="#51DACF" points="233.37752,65.48377 267.03204,65.15044 266.51727,64.36514 265.25879,63.57276 
			233.79701,63.71259 		"/>
		<polyline fill="#51DACF" points="232.88916,96.92686 233.35799,99.15883 233.72377,100 266,100 266.99957,99.26234 
			267.25714,96.84135 		"/>
		<polyline fill="#47AED6" points="233,99 267,99 266.02609,100.26195 234.08121,100.17271 		"/>
		<polyline fill="#76F4E8" points="233.23869,64.51752 266.78369,64.43941 265.33881,63.85365 234.05878,64.08795 		"/>
		<path fill="none" stroke="#1A2F4B" stroke-miterlimit="10" d="M265.48669,100.40324h-31.26598
			c-0.77269,0-1.39906-0.62638-1.39906-1.39906V65.30507c0-0.77268,0.62637-1.39906,1.39906-1.39906h31.26598
			c0.77267,0,1.39905,0.62638,1.39905,1.39906v33.69911C266.88574,99.77686,266.25937,100.40324,265.48669,100.40324z"/>
		<line fill="none" stroke="#1A2F4B" stroke-miterlimit="10" x1="267" y1="96.5" x2="233" y2="96.5"/>
		<line fill="none" stroke="#1A2F4B" stroke-miterlimit="10" x1="267" y1="65.5" x2="233" y2="65.5"/>
		<circle fill="#76F4E8" cx="249.8537" cy="98.47307" r="0.79212"/>
		<path fill="#76F4E8" d="M233.5511,64.43941"/>
		<line opacity="0.5" fill="none" stroke="#FFFFFF" stroke-miterlimit="10" x1="264.5" y1="71" x2="264.5" y2="94"/>
		<line opacity="0.5" fill="none" stroke="#FFFFFF" stroke-miterlimit="10" x1="262.5" y1="71" x2="262.5" y2="94"/>
	</g>
</g>
<g id="iphone">
	<g>
		<polyline fill="#51DACF" points="325.24786,93.74229 325.39709,96.20438 325.91934,97.3235 327.33691,97.54733 341.4379,97.62193 
			342.48242,96.57742 342.65942,93.66644 		"/>
		<polygon fill="#47AED6" points="326,96 342,96 343,96 342.19824,96.83561 341.65915,97.46983 325.91934,97.3235 
			325.39142,96.01112 		"/>
		<polyline fill="#51DACF" points="325.47543,68.63235 342.40781,68.74845 342.55704,67.40549 341.66174,66.13715 
			338.90121,65.76411 325.91934,66.06255 		"/>
		<polyline fill="#76F4E8" points="326,67 343,67 341.40878,66.09838 326.73419,65.87747 		"/>
		<path fill="none" stroke="#1A2F4B" stroke-miterlimit="10" d="M340.92035,97.89562h-13.8407
			c-0.95276,0-1.72516-0.77238-1.72516-1.72516V67.96089c0-0.95277,0.7724-1.72516,1.72516-1.72516h13.8407
			c0.95276,0,1.72516,0.77238,1.72516,1.72516v28.20957C342.64551,97.12325,341.87311,97.89562,340.92035,97.89562z"/>
		<line fill="none" stroke="#1A2F4B" stroke-miterlimit="10" x1="325" y1="93.5" x2="343" y2="93.5"/>
		<line fill="none" stroke="#1A2F4B" stroke-miterlimit="10" x1="325" y1="68.5" x2="343" y2="68.5"/>
		<polyline fill="#1A2F4B" points="326.47653,93.52558 342.65942,93.66644 342.73483,68.72958 325.47543,68.63235 
			325.27539,93.17379 		"/>
		<circle fill="#76F4E8" cx="334" cy="95.8019" r="1.08876"/>
		<line opacity="0.5" fill="none" stroke="#FFFFFF" stroke-miterlimit="10" x1="338.5" y1="72" x2="338.5" y2="92"/>
		<line opacity="0.5" fill="none" stroke="#FFFFFF" stroke-miterlimit="10" x1="340.5" y1="72" x2="340.5" y2="92"/>
	</g>
</g>
<g id="Layer_6">
	<g>
		<polyline fill="#51DACF" points="412.25528,89.21694 412.38589,96.33591 413.82275,97.51152 416.69647,97.90339 
			421.85611,97.83808 423.29297,96.98903 423.88077,94.18063 423.5542,89.21694 		"/>
		<path fill="#51DACF" d="M412.45123,74.84837l0.13062-6.98835l0.84906-1.63279l1.7634-0.13062c0,0,6.98834,0.45718,7.1843,0.45718
			c0.19592,0,1.1756,1.24093,1.1756,1.24093l0.10202,7.78333l-10.94376-0.14187"/>
		<line fill="none" stroke="#47AED6" stroke-miterlimit="10" x1="412" y1="95.5" x2="423" y2="95.5"/>
		<line fill="none" stroke="#47AED6" stroke-miterlimit="10" x1="412" y1="93.5" x2="423" y2="93.5"/>
		<line fill="none" stroke="#76F4E8" stroke-miterlimit="10" x1="412" y1="69.5" x2="423" y2="69.5"/>
		<line fill="none" stroke="#76F4E8" stroke-miterlimit="10" x1="412" y1="73.5" x2="424" y2="73.5"/>
		<line fill="none" stroke="#76F4E8" stroke-miterlimit="10" x1="412" y1="71.5" x2="423" y2="71.5"/>
		<line fill="none" stroke="#47AED6" stroke-miterlimit="10" x1="412" y1="91.5" x2="423" y2="91.5"/>
		<path fill="none" stroke="#1A2F4B" stroke-miterlimit="10" d="M423.65622,88.96473h-11.26324
			c-0.74097,0-1.34164-0.60067-1.34164-1.34164v-10.7034c0-0.74097,0.60068-1.34164,1.34164-1.34164h11.26324
			c0.74097,0,1.34164,0.60068,1.34164,1.34164v10.7034C424.99786,88.36406,424.39719,88.96473,423.65622,88.96473z"/>
		<path fill="none" stroke="#1A2F4B" stroke-miterlimit="10" d="M412.41675,75.36942v-6.96757
			c0-1.15498,0.93628-2.09127,2.09125-2.09127h7.03317c1.15497,0,2.09128,0.93629,2.09128,2.09127v6.96757"/>
		<path fill="none" stroke="#1A2F4B" stroke-miterlimit="10" d="M423.63245,88.74199v6.96757
			c0,1.15498-0.93631,2.09127-2.09128,2.09127H414.508c-1.15497,0-2.09125-0.93629-2.09125-2.09127v-6.96757"/>
		<path fill="#1A2F4B" d="M412,89h12.13397l0.56479-0.5191c0,0,0.47006-1.16625,0.47006-1.34254s-0.35254-10.42559-0.35254-10.42559
			l-0.47009-1.12891l-12.57486,0.22882l-0.94016,0.81954l0.10928,11.79147"/>
		<line opacity="0.5" fill="none" stroke="#FFFFFF" stroke-miterlimit="10" x1="420.5" y1="78" x2="420.5" y2="88"/>
		<line opacity="0.5" fill="none" stroke="#FFFFFF" stroke-miterlimit="10" x1="422.5" y1="78" x2="422.5" y2="88"/>
	</g>
</g>
<g id="Layer_7">
	<g id="Layer_8">
	</g>
	<g>
		<path fill="#51DACF" d="M59.00993,158.82433l0.01525,18.03246l0.90632,0.92798l25.61658,0.2543l2.47331,1.0558
			c0,0,11.45181,2.80458,15.58579-6.24226s-3.41081-14.86404-3.41081-14.86404s-5.56979-4.31656-11.62099-1.80022l-1.91615-3.35654
			l-1.9341-0.80927l-10.94638,0.14915l-1.13821,1.20512l-1.85717,4.2466L68.84,157.6375l-0.45315-0.25813l-1.43791-1.74187
			l-3.83442-0.53043l-1.31808,1.37801l-0.71896,0.83878l-1.19826,0.41939"/>
		<polyline fill="#76F4E8" points="62,178 62,157.6375 60.25879,157.74324 59.08044,159.30098 59.44,177.21645 		"/>
		<polyline fill="#76F4E8" points="64,158 64,154.6375 62,156.72472 62,158 		"/>
		<polyline fill="#76F4E8" points="74.12196,153.61485 74.33992,154.51074 77.08507,154.59921 85.43221,154.42139 
			85.96748,154.21069 85.39683,154 75,154 		"/>
		<polyline fill="#76F4E8" points="72.88032,157.56351 74.29992,154.42012 73.88097,153.82278 74.43392,153.26984 
			74.73762,153.24977 75.45657,151.99161 73.77875,152.17169 72.04153,154.08855 70.78336,157.62341 		"/>
		<circle fill="none" stroke="#76F4E8" stroke-miterlimit="10" cx="92.76922" cy="167.60817" r="6.0719"/>
		<polyline fill="#47AED6" points="68.33775,157.91566 68.38348,177.77341 70,177.75415 70,158 		"/>
		<polyline fill="#47AED6" points="65.93042,155.34824 65.84,158 67.84,158 68.14719,156.72623 67.12868,155.52797 		"/>
		<polyline fill="#47AED6" points="84.32368,152.17134 85.04263,153.07004 85.70168,153.66916 85.76159,154.20837 
			86.95985,156.96437 88.27792,156.1256 87.73871,154.08855 86.24089,152.29117 		"/>
		<circle fill="none" stroke="#47AED6" stroke-miterlimit="10" cx="92.77139" cy="167.44913" r="9.34641"/>
		<polyline fill="#47AED6" points="80,158 80,177.6375 85.4222,177.93388 82.82166,174.93823 81,169.1866 81,166.6375 
			82.00716,161.93715 85.28246,157.86458 		"/>
		<g id="XMLID_2_">
			<g>
			</g>
			<g>
				<path fill="none" stroke="#1A2F4B" stroke-miterlimit="10" d="M85.87,177.8175H68.34h-7.67c-0.83,0-1.51-0.67-1.51-1.51001
					v-17.34c0-0.84,0.68-1.50999,1.51-1.50999h0.68h6.98h2.33h15.21"/>
				<path fill="none" stroke="#1A2F4B" stroke-miterlimit="10" d="M88.43,156.1575c1.3-0.48,2.72-0.74001,4.19-0.74001
					c6.75,0,12.21999,5.47,12.21999,12.22s-5.46999,12.22-12.21999,12.22c-2.5,0-4.82-0.75-6.75-2.03999
					c-3.3-2.18001-5.47-5.93001-5.47-10.18001c0-3.56999,1.53-6.78,3.97-9.00999c0.46999-0.43001,0.96999-0.82001,1.5-1.17
					C86.66,156.92751,87.52,156.4875,88.43,156.1575z"/>
				<path fill="none" stroke="#1A2F4B" stroke-width="0.75" stroke-miterlimit="10" d="M97.83,161.11749
					c1.83,1.48001,3,3.75,3,6.29001c0,2.53999-1.17,4.81-3,6.28999c-1.39,1.14-3.17,1.82001-5.11,1.82001c-4.47,0-8.1-3.63-8.1-8.11
					s3.63-8.10001,8.1-8.10001C94.66,159.3075,96.44,159.9875,97.83,161.11749z"/>
				<path fill="none" stroke="#1A2F4B" stroke-width="0.75" stroke-miterlimit="10" d="M61.34,157.6375c0-0.06,0-0.12,0.01-0.17999
					c0.09-1.29001,1.17-2.32001,2.49-2.32001h2c1.32001,0,2.4,1.03,2.49001,2.32001c0.00999,0.06,0.00999,0.12,0.00999,0.17999
					v20.18001v0.09999"/>
				<path fill="none" stroke="#1A2F4B" stroke-width="0.75" stroke-miterlimit="10" d="M70.66,157.4575l1.71-3.77
					c0.46-1.02,1.46999-1.67,2.57999-1.67H84.73c1.10999,0,2.12,0.64999,2.57999,1.67l1.12,2.47"/>
			</g>
		</g>
		<circle fill="#1A2F4B" cx="92.8538" cy="167.42529" r="3.68595"/>
		<circle opacity="0.5" fill="#FFFFFF" cx="93.77504" cy="166.42552" r="1.41912"/>
		<path fill="none" stroke="#1A2F4B" stroke-width="0.75" stroke-miterlimit="10" d="M85.39683,154.37575H74.43392
			c-0.30539,0-0.55296-0.24757-0.55296-0.55295v-0.00002c0-0.30537,0.24757-0.55295,0.55296-0.55295h10.96291
			c0.30539,0,0.55296,0.24757,0.55296,0.55295v0.00002C85.94978,154.12817,85.70222,154.37575,85.39683,154.37575z"/>
		<circle opacity="0.5" fill="#FFFFFF" cx="94.59176" cy="165.82039" r="0.7628"/>
	</g>
</g>
<g id="Layer_9">
	<g id="Layer_10">
	</g>
	<g>
		<polyline fill="#51DACF" points="155.55533,178.53522 156.35106,180.94319 158.46526,182 174,182 175.43161,180.92325 
			176.36861,178.72939 177.62814,178.04503 177.47667,167.36531 178.15834,166.22917 178.91577,162.82076 178.46132,155.01926 
			177.0222,154.48906 153.99644,154.86777 153.4339,155.67828 153.47569,166.07768 155,167.59253 155,178 		"/>
		<line fill="none" stroke="#76F4E8" stroke-miterlimit="10" x1="155.5" y1="167" x2="155.5" y2="155"/>
		<line fill="none" stroke="#76F4E8" stroke-miterlimit="10" x1="158.5" y1="167" x2="158.5" y2="155"/>
		<line fill="none" stroke="#76F4E8" stroke-miterlimit="10" x1="161.5" y1="167" x2="161.5" y2="155"/>
		<line fill="none" stroke="#76F4E8" stroke-miterlimit="10" x1="164.5" y1="167" x2="164.5" y2="155"/>
		<line fill="none" stroke="#76F4E8" stroke-miterlimit="10" x1="167.5" y1="167" x2="167.5" y2="155"/>
		<line fill="none" stroke="#76F4E8" stroke-miterlimit="10" x1="170.5" y1="167" x2="170.5" y2="154"/>
		<line fill="none" stroke="#76F4E8" stroke-miterlimit="10" x1="173.5" y1="167" x2="173.5" y2="155"/>
		<line fill="none" stroke="#76F4E8" stroke-miterlimit="10" x1="176.5" y1="167" x2="176.5" y2="155"/>
		<polyline fill="#76F4E8" points="154,157 179,157 178.23409,154.71628 176.56775,154.41331 153.99644,154.86777 		"/>
		<polyline fill="#47AED6" points="154,169 178,169 177.47667,167.36531 154.75386,167.13808 		"/>
		<line fill="none" stroke="#47AED6" stroke-miterlimit="10" x1="158.5" y1="179" x2="158.5" y2="182"/>
		<line fill="none" stroke="#47AED6" stroke-miterlimit="10" x1="160.5" y1="179" x2="160.5" y2="182"/>
		<line fill="none" stroke="#47AED6" stroke-miterlimit="10" x1="162.5" y1="178" x2="162.5" y2="183"/>
		<line fill="none" stroke="#47AED6" stroke-miterlimit="10" x1="164.5" y1="178" x2="164.5" y2="183"/>
		<line fill="none" stroke="#47AED6" stroke-miterlimit="10" x1="166.5" y1="179" x2="166.5" y2="182"/>
		<line fill="none" stroke="#47AED6" stroke-miterlimit="10" x1="168.5" y1="178" x2="168.5" y2="183"/>
		<line fill="none" stroke="#47AED6" stroke-miterlimit="10" x1="170.5" y1="178" x2="170.5" y2="183"/>
		<line fill="none" stroke="#47AED6" stroke-miterlimit="10" x1="172.5" y1="179" x2="172.5" y2="183"/>
		<line fill="none" stroke="#47AED6" stroke-miterlimit="10" x1="174.5" y1="178" x2="174.5" y2="182"/>
		<path fill="none" stroke="#47AED6" stroke-miterlimit="10" d="M174.5,179"/>
		<line fill="none" stroke="#47AED6" stroke-miterlimit="10" x1="156.5" y1="181" x2="156.5" y2="179"/>
		<polyline fill="#47AED6" points="156,180 176,180 176.53951,178.5 155.89,178.80244 		"/>
		<line fill="none" stroke="#76F4E8" stroke-miterlimit="10" x1="155.5" y1="178" x2="155.5" y2="166"/>
		<line fill="none" stroke="#76F4E8" stroke-miterlimit="10" x1="158.5" y1="178" x2="158.5" y2="166"/>
		<line fill="none" stroke="#76F4E8" stroke-miterlimit="10" x1="161.5" y1="178" x2="161.5" y2="166"/>
		<line fill="none" stroke="#76F4E8" stroke-miterlimit="10" x1="164.5" y1="178" x2="164.5" y2="166"/>
		<line fill="none" stroke="#76F4E8" stroke-miterlimit="10" x1="167.5" y1="178" x2="167.5" y2="166"/>
		<line fill="none" stroke="#76F4E8" stroke-miterlimit="10" x1="170.5" y1="178" x2="170.5" y2="165"/>
		<line fill="none" stroke="#76F4E8" stroke-miterlimit="10" x1="173.5" y1="178" x2="173.5" y2="166"/>
		<line fill="none" stroke="#76F4E8" stroke-miterlimit="10" x1="176.5" y1="178" x2="176.5" y2="166"/>
		<path fill="none" stroke="#1A2F4B" stroke-miterlimit="10" d="M177.48576,166.87975h-22.97153
			c-0.59665,0-1.08034-0.48369-1.08034-1.08035v-10.12111c0-0.59665,0.48369-1.08034,1.08034-1.08034h22.97153
			c0.59665,0,1.08034,0.48369,1.08034,1.08034v10.12111C178.5661,166.39606,178.08241,166.87975,177.48576,166.87975z"/>
		<path fill="none" stroke="#1A2F4B" stroke-miterlimit="10" d="M154.5,167v10.53951c0,0.53047,0.43002,0.96049,0.96049,0.96049H166
			h10.53951c0.53047,0,0.96049-0.43002,0.96049-0.96049V167"/>
		<path fill="none" stroke="#1A2F4B" stroke-miterlimit="10" d="M155.54211,178.81464v0.00002
			c-0.02318,2.0285,1.61484,3.68535,3.64348,3.68535h13.5415c2.06212,0,3.71332-1.70975,3.64151-3.77061l-0.00627-0.17998"/>
		<path fill="#1A2F4B" d="M154.39938,154.32994l1.13051-1.07741c0.84398-0.80432,1.96396-1.25487,3.12981-1.25905l14.7733-0.05298
			c1.21513-0.00436,2.38177,0.47643,3.24101,1.33566l0.87447,0.87447"/>
	</g>
</g>
<g id="Layer_11">
	<polyline fill="#51DACF" points="245.42455,157.01974 244.55307,158.68579 244.71019,176.05284 246.58141,178.98833 
		249.55032,179.90741 252.77762,179.46326 255.0612,176.72896 255.5722,167.12213 255.1123,157.61749 253.06023,156.74954 
		252.98338,154.61942 253.3125,151.5 245.97054,151.4565 246.46927,153.78027 246.55725,156.36226 	"/>
	<polyline fill="#76F4E8" points="247,153 253,153 253.459,151.7222 251.99927,151.53505 246.79663,151.64734 	"/>
	<polyline fill="#76F4E8" points="245,158 255.36789,158.04771 254.73158,157.41142 252.89757,156.43826 245.8609,156.70027 	"/>
	<polyline fill="#47AED6" points="253,155 247,155 246.55725,156.36226 253.38605,156.3419 	"/>
	<path fill="#47AED6" d="M244.55019,173.68442l0.32793,1.00262c1.58444,4.84445,8.38611,4.98567,10.17027,0.21117l0.29169-0.78055
		l-0.27887,2.6113l-1.61983,2.23914l-2.82137,1.38301l-2.32347-0.11064l-2.26814-1.3277"/>
	<g>
		<path fill="none" stroke="#1A2F4B" stroke-miterlimit="10" d="M250,180.13422L250,180.13422
			c-3.00984,0-5.44981-2.43996-5.44981-5.4498v-15.87553c0-1.22139,0.99014-2.21152,2.21152-2.21152h6.47659
			c1.22137,0,2.21152,0.99013,2.21152,2.21152v15.87553C255.44981,177.69426,253.00984,180.13422,250,180.13422z"/>
		<polyline fill="none" stroke="#1A2F4B" stroke-miterlimit="10" points="253.5,157 253.5,151.5 246.5,151.5 246.5,157 		"/>
		<line fill="none" stroke="#1A2F4B" stroke-miterlimit="10" x1="248.5" y1="153" x2="248.5" y2="154"/>
		<line fill="none" stroke="#1A2F4B" stroke-miterlimit="10" x1="251.5" y1="153" x2="251.5" y2="154"/>
	</g>
</g>
<g id="Layer_12">
	<g>
		<polyline fill="#51DACF" points="315,161 314.35873,187.347 315.0867,188.23676 352.61804,188.15587 353.50781,187.67055 
			353.61523,145.26349 352.61804,143.66829 315.7338,143.91095 314.60138,144.7198 314.11606,162.51485 314.68228,187.02345 		"/>
		<polyline fill="#47AED6" points="315,149 354,149 353.7504,150.78305 314.35031,150.4877 		"/>
		<polyline fill="#47AED6" points="314,187 354,187 352.50992,188.52916 315.41357,188.47009 		"/>
		<circle fill="#1A2F4B" cx="350.9473" cy="185.47179" r="0.84976"/>
		<polyline fill="#76F4E8" points="314,152 354,152 353.75046,150.22009 314.35873,150.70541 		"/>
		<polyline fill="#76F4E8" points="314,145 353,145 353.58868,144.55803 352.29449,143.74918 315.0867,144.15361 		"/>
		<path fill="none" stroke="#1A2F4B" stroke-miterlimit="10" d="M352.00537,188.34637h-36.01074
			c-0.8891,0-1.60986-0.72076-1.60986-1.60986v-41.47302c0-0.8891,0.72076-1.60986,1.60986-1.60986h36.01074
			c0.8891,0,1.60986,0.72076,1.60986,1.60986v41.47302C353.61523,187.62561,352.89447,188.34637,352.00537,188.34637z"/>
		<line fill="none" stroke="#1A2F4B" stroke-miterlimit="10" x1="314" y1="150.5" x2="354" y2="150.5"/>
		<circle fill="#1A2F4B" cx="316.9473" cy="153.47179" r="0.84976"/>
		<circle fill="#1A2F4B" cx="316.9473" cy="185.47179" r="0.84976"/>
		<circle fill="#1A2F4B" cx="350.9473" cy="153.47179" r="0.84976"/>
		<line fill="none" stroke="#1A2F4B" stroke-miterlimit="10" x1="333.48166" y1="150.36815" x2="333.5" y2="144"/>
	</g>
</g>
<g id="Layer_13">
	<g>
		<path fill="#51DACF" d="M401.3136,174.63203c0.17142,0.17142,1.81305,2.15213,1.81305,2.15213l2.49219,0.32611l2.59598-1.6797
			l2.56223-3.21828l1.1954-3.04477l12.16843,0.08466l0.47028,1.62796l3.94205,5.48512l2.61386,0.77126l1.88547-0.68573
			l1.49985-1.24283l1.15704-2.78557c0,0,0.04282-5.35683-0.55713-6.38535c-0.59998-1.0285-1.67136-4.49974-1.67136-4.49974
			l-3.21411-3.72835l0.29999-0.89995l-0.42853-1.24278l-1.82626-0.21428L427,155.83765V157l-3.33279-0.13385l-12.98495,0.08571
			l-0.89993-0.17142l-0.08572-0.94279l-1.67133-0.3857l-2.39987,0.17142l-0.29996,1.62848l-0.21429,1.11421
			c0,0-3.77121,4.11404-4.19974,7.28529c-0.42856,3.17125-0.81424,7.67097,0,8.7852"/>
		<polyline fill="#76F4E8" points="406,157 409,157 409.50464,156.41167 408.97964,155.4492 406.23615,155.5 		"/>
		<polyline fill="#76F4E8" points="406.52972,155.5367 406.92346,156.41167 406.3985,157.46162 405.91727,157.33038 
			405.74228,155.84294 		"/>
		<polyline fill="#76F4E8" points="426.82907,155.4492 430.32895,155.66794 430.67892,157.19914 430.26682,157.80896 
			428.53525,157.06789 427.26654,156.8054 426.74158,156.76166 		"/>
		<path fill="#76F4E8" d="M434.74756,165.20512c0,0-3.49988-6.91228-7.17477-6.38728
			c-3.67487,0.52498-12.29288-1.39996-12.29288-1.39996l8.79346-0.21873l2.31866-0.34999l2.3187,0.2625l2.40616,0.69997
			l2.09995,2.23119"/>
		<path fill="#76F4E8" d="M401.27991,165.51137c0,0,3.98111-7.52475,7.65601-6.99977
			c3.67487,0.52498,12.51208-1.09372,12.51208-1.09372l-8.79346-0.21873l-2.31866-0.34999l-2.3187,0.2625l-2.40616,0.69997
			l-2.09995,2.23119"/>
		<path fill="#76F4E8" d="M411.77957,164.98637l-0.56873,1.48746l0.00543-0.01431c0.4971-1.31058,2.35434-1.30121,2.8382,0.01431
			l0,0l-0.17499-1.26871l-1.22311-0.51837"/>
		<path fill="#76F4E8" d="M422.76691,165.07388l-0.56873,1.48744l0.00543-0.01431c0.4971-1.31056,2.35434-1.30119,2.8382,0.01431
			l0,0l-0.17499-1.26871l-1.22311-0.51837"/>
		<path fill="#76F4E8" d="M404.21106,164.41765l0.25919-0.74966c0.83835-2.42476,4.27429-2.40564,5.0856,0.02829l0.18942,0.56825
			l0.15311-1.42183l-1.61868-1.96867l-2.3187-0.08751l-1.66245,1.83745"/>
		<path fill="#76F4E8" d="M426.142,164.53024l0.25919-0.74966c0.83835-2.42476,4.27426-2.40564,5.08557,0.02829l0.18942,0.56825
			l0.15311-1.42183l-1.61868-1.96867l-2.31866-0.08751l-1.66245,1.83745"/>
		<path fill="#47AED6" d="M422.34958,165.99565L422.34958,165.99565c0.40573,1.23155,2.1499,1.22575,2.54742-0.00847
			l0.04117-0.12778l-0.39359,1.19591l-1.15048,0.37845l-1.36243-0.92342"/>
		<path fill="#47AED6" d="M404.10028,163.96336L404.10028,163.96336c1.0827,2.19318,4.15842,2.33127,5.43332,0.24394
			l0.32486-0.53186l-0.3519,1.95139l-1.69547,0.89572l-1.53552,0.06398l-1.21561-0.47986"/>
		<path fill="#47AED6" d="M426.01712,163.89938L426.01712,163.89938c1.08273,2.19318,4.15845,2.33127,5.43335,0.24394
			l0.32483-0.53186l-0.35187,1.95139l-1.69547,0.89572l-1.53552,0.06398l-1.21561-0.47986"/>
		<path fill="#47AED6" d="M411.35489,166.05708v0.00002c0.40576,1.23154,2.14993,1.22574,2.54745-0.00848l0.04117-0.12778
			l-0.39359,1.19591l-1.15051,0.37846l-1.36243-0.92343"/>
		<path fill="#47AED6" d="M411.61511,162.61737c0,0,0.06677,0.89813,0.80252,1.12206c0.73578,0.22394,11.3244,0,11.3244,0
			s0.86978-0.13278,0.64285-1.12206"/>
		<path fill="#47AED6" d="M424.16217,168.91789L424.16217,168.91789l0.45035-0.32922l0,0
			c1.03317-0.41768,2.18848,0.12888,2.54974,1.18311c0.75763,2.21095,2.49377,5.59381,6.19016,6.60962
			c0,0-3.01376,1.7652-6.75943-2.71239"/>
		<path fill="#47AED6" d="M412,169L412,169l-0.45035-0.32922l0,0c-1.0332-0.41766-2.18848,0.12888-2.54974,1.18311
			c-0.75763,2.21095-2.4938,5.59381-6.19019,6.60962c0,0,3.01376,1.7652,6.75946-2.71239"/>
		<g id="XMLID_3_">
			<path fill="none" stroke="#1A2F4B" stroke-miterlimit="10" d="M409.03,156.98c-3.04999-0.59999-6.66,3.09001-8.17001,8.43001
				c-1.54999,5.50999-0.28,10.67999,2.84003,11.56c2.98999,0.84,6.59-2.59,8.23999-7.74001h12.12
				c1.64999,5.15001,5.25,8.58,8.23999,7.74001c3.12003-0.88,4.39001-6.05,2.84003-11.56
				c-1.51001-5.34-5.12003-9.03-8.17001-8.43001c-0.01999-0.00999-0.03-0.00999-0.04999-0.00999h-17.84003
				C409.06,156.97,409.04999,156.97,409.03,156.98z"/>
		</g>
		<path fill="#1A2F4B" d="M423.55573,163.44653h-11.11145c-0.45792,0-0.82916-0.37123-0.82916-0.82916v-5.78305
			c0-0.45793,0.37125-0.82916,0.82916-0.82916h11.11145c0.45792,0,0.82916,0.37123,0.82916,0.82916v5.78305
			C424.38489,163.0753,424.01364,163.44653,423.55573,163.44653z"/>
		<circle fill="none" stroke="#1A2F4B" stroke-width="0.75" stroke-miterlimit="10" cx="412.65637" cy="166.15666" r="1.4699"/>
		<circle fill="none" stroke="#1A2F4B" stroke-width="0.75" stroke-miterlimit="10" cx="423.65326" cy="166.15666" r="1.4699"/>
		<circle fill="#1A2F4B" cx="418" cy="166.22556" r="0.71198"/>
		<path fill="none" stroke="#1A2F4B" stroke-miterlimit="10" d="M409.5,157v-0.76384c0-0.40657-0.32959-0.73616-0.73615-0.73616
			h-2.52771c-0.40656,0-0.73615,0.32959-0.73615,0.73616V158"/>
		<path fill="none" stroke="#1A2F4B" stroke-miterlimit="10" d="M426.5,157v-0.76384c0-0.40657,0.32959-0.73616,0.73615-0.73616
			h2.52771c0.40656,0,0.73615,0.32959,0.73615,0.73616V158"/>
		<circle fill="none" stroke="#1A2F4B" stroke-width="0.75" stroke-miterlimit="10" cx="429.06549" cy="163.58434" r="2.9398"/>
		<circle fill="none" stroke="#1A2F4B" stroke-width="0.75" stroke-miterlimit="10" cx="407.02271" cy="163.65509" r="2.9398"/>
		<polyline fill="#1A2F4B" points="409.10342,157.50307 409.68802,157.4563 409.47757,157.00616 		"/>
		<polyline fill="#1A2F4B" points="426.8985,157.50307 426.2262,157.46214 426.5473,157.23538 		"/>
		<line opacity="0.5" fill="none" stroke="#FFFFFF" stroke-miterlimit="10" x1="422.5" y1="157" x2="422.5" y2="162"/>
		<line opacity="0.5" fill="none" stroke="#FFFFFF" stroke-miterlimit="10" x1="420.5" y1="157" x2="420.5" y2="162"/>
	</g>
</g>
<g id="Layer_14">
</g>
</svg>
